<svg width="1000" height="1000" xmlns="http://www.w3.org/2000/svg" xml:space="preserve" enable-background="new 0 0 1000 1000" version="1.1">
 <metadata>Svg Vector Icons : http://www.onlinewebfonts.com/icon</metadata>

 <g>
  <title>Layer 1</title>
  <g id="svg_1">
   <path fill="#e5e7eb" id="svg_2" d="m500,10.1c-270.5,0 -490,219.4 -490,489.8c0,270.5 219.5,490 490,490c270.5,0 490,-219.5 490,-490c0,-270.5 -219.5,-489.8 -490,-489.8zm0,343.2c81,0 146.8,65.6 146.8,146.6c0,81 -65.8,146.8 -146.8,146.8c-81,0 -146.8,-65.8 -146.8,-146.8c0,-81 65.8,-146.6 146.8,-146.6zm-415.3,178.1l205.3,0c15.2,102.3 103.5,180.7 210,180.7s194.8,-78.4 210,-180.7l205.3,0c-16.2,215.2 -196,385.1 -415.3,385.1c-219.3,0 -399.2,-169.8 -415.3,-385.1z"/>
  </g>
 </g>
</svg>